<?xml version="1.0" encoding="utf-8"?>
<svg xmlns="http://www.w3.org/2000/svg" viewBox="120.869 -37.494 231.899 226.691">
  <g transform="matrix(1, 0, 0, 1, -0.02599, 1.445487)">
    <path d="M 191.212 180.284 C 189.956 180.285 188.749 179.792 187.853 178.911 C 185.96 177.056 185.93 174.018 187.786 172.125 L 207.518 151.998 C 207.568 151.947 207.597 151.877 207.597 151.806 L 207.597 110.107 C 207.597 107.456 209.745 105.308 212.396 105.308 C 215.047 105.308 217.195 107.456 217.195 110.107 L 217.195 151.806 C 217.195 154.406 216.193 156.86 214.373 158.717 L 194.64 178.844 C 193.738 179.766 192.502 180.285 191.212 180.284" style="fill: rgb(22, 185, 166); stroke-width: 0.237;"/>
    <circle cx="164.435" cy="85.681" r="7.013" style="fill: rgb(22, 185, 166); stroke-width: 0.237;"/>
    <path d="M 310.069 79.575 C 312.46 87.079 319.495 92.531 327.781 92.531 C 338.031 92.531 346.369 84.192 346.369 73.944 C 346.369 63.695 338.03 55.357 327.781 55.357 C 318.894 55.357 311.447 61.628 309.625 69.977 L 246.476 69.977 L 276.587 39.866 C 277.487 38.965 277.992 37.745 277.992 36.472 L 277.992 2.182 C 277.992 -3.56 282.664 -8.231 288.406 -8.231 L 296.539 -8.231 C 298.828 -0.559 305.944 5.052 314.35 5.052 C 324.599 5.052 332.937 -3.287 332.937 -13.535 C 332.937 -23.784 324.599 -32.122 314.35 -32.122 C 305.579 -32.122 298.213 -26.014 296.269 -17.829 L 288.406 -17.829 C 277.371 -17.829 268.394 -8.852 268.394 2.183 L 268.394 34.485 L 224.314 78.564 L 190.287 78.564 C 187.637 78.564 185.488 80.713 185.488 83.363 C 185.488 86.014 187.637 88.163 190.287 88.163 L 223.58 88.163 L 268.573 133.826 L 268.573 148.173 C 268.573 158.635 277.084 167.146 287.547 167.146 L 296.395 167.146 C 298.516 175.076 305.761 180.934 314.35 180.934 C 324.599 180.934 332.937 172.596 332.937 162.347 C 332.937 152.099 324.599 143.76 314.35 143.76 C 305.761 143.76 298.517 149.618 296.395 157.548 L 287.547 157.548 C 282.377 157.548 278.172 153.343 278.172 148.173 L 278.172 131.859 C 278.172 130.599 277.676 129.389 276.791 128.491 L 232.705 83.747 L 236.878 79.575 L 310.069 79.575 Z M 327.781 64.955 C 332.738 64.955 336.771 68.987 336.771 73.944 C 336.771 78.9 332.738 82.932 327.781 82.932 C 322.825 82.932 318.793 78.9 318.793 73.944 C 318.792 68.987 322.825 64.955 327.781 64.955 M 314.35 -22.525 C 319.306 -22.525 323.339 -18.492 323.339 -13.536 C 323.339 -8.579 319.306 -4.547 314.35 -4.547 C 309.394 -4.547 305.361 -8.579 305.361 -13.536 C 305.361 -18.492 309.394 -22.525 314.35 -22.525 M 314.35 153.358 C 319.306 153.358 323.339 157.391 323.339 162.347 C 323.339 167.303 319.306 171.336 314.35 171.336 C 309.394 171.336 305.361 167.303 305.361 162.347 C 305.361 157.391 309.394 153.358 314.35 153.358" style="fill: rgb(22, 185, 166); stroke-width: 0.237;"/>
    <path d="M 189.819 100.365 C 192.323 96.046 193.764 91.033 193.764 85.681 C 193.764 80.243 192.278 75.154 189.699 70.788 L 190.393 70.11 L 194.602 65.998 C 195.705 64.92 195.726 63.151 194.648 62.048 L 188.75 56.011 C 187.672 54.908 185.903 54.888 184.8 55.966 L 179.894 60.759 C 177.354 59.177 174.586 57.996 171.686 57.257 L 171.694 56.293 L 171.746 50.41 C 171.759 48.867 170.519 47.606 168.977 47.593 L 160.538 47.519 C 158.995 47.506 157.734 48.746 157.72 50.288 L 157.661 57.147 C 154.599 57.87 151.675 59.085 149.002 60.742 L 144.827 56.652 C 143.725 55.572 141.956 55.59 140.877 56.692 L 134.971 62.72 C 133.891 63.822 133.909 65.591 135.011 66.67 L 139.186 70.761 C 137.727 73.224 136.638 75.888 135.956 78.668 L 130.113 78.668 C 128.57 78.668 127.32 79.919 127.32 81.461 L 127.32 89.9 C 127.32 91.443 128.571 92.694 130.113 92.694 L 135.956 92.694 C 136.627 95.424 137.689 98.042 139.11 100.468 L 138.73 100.835 L 134.503 104.929 C 133.395 106.002 133.367 107.77 134.44 108.878 L 140.311 114.941 C 141.384 116.049 143.153 116.077 144.261 115.004 L 148.873 110.537 C 151.536 112.209 154.452 113.439 157.507 114.179 L 157.508 114.705 L 157.522 120.589 C 157.526 122.132 158.78 123.379 160.322 123.376 L 168.762 123.355 C 170.304 123.352 171.552 122.098 171.548 120.555 L 171.533 114.14 C 174.565 113.385 177.457 112.146 180.096 110.473 L 180.478 110.841 L 184.716 114.922 C 185.828 115.992 187.596 115.958 188.666 114.847 L 194.52 108.768 C 195.589 107.657 195.556 105.888 194.445 104.818 L 189.819 100.365 Z M 164.435 104.491 C 154.046 104.491 145.625 96.069 145.625 85.681 C 145.625 75.292 154.046 66.871 164.435 66.871 C 174.823 66.871 183.245 75.292 183.245 85.681 C 183.245 96.069 174.823 104.491 164.435 104.491" style="fill: rgb(22, 185, 166); stroke-width: 0.237;"/>
  </g>
</svg>